<svg xmlns="http://www.w3.org/2000/svg" viewBox="0 0 380.34 84.66"><defs><style>.cls-1{fill:#fff;}.cls-2{fill:#282c67;}.cls-3{fill:none;stroke:#231f20;stroke-miterlimit:10;stroke-width:10px;}.cls-4{fill:#231f20;}</style></defs><title>Asset 3</title><g id="Layer_2" data-name="Layer 2"><g id="Layer_1-2" data-name="Layer 1"><path class="cls-1" d="M107.9,34.49l24.34,29.12L119,74.67c-.21.2-.42.39-.64.57A19,19,0,0,1,94,46.1Z"/><path class="cls-2" d="M149.9,24.13a19,19,0,0,1-2.4,26.76c-.22.18-.44.36-.67.53L132.92,63,108.58,33.92l14.57-12.18A19,19,0,0,1,149.9,24.13Z"/><path class="cls-3" d="M94,46.1l13.9-11.61,24.34,29.12L119,74.67c-.21.2-.42.39-.64.57A19,19,0,0,1,94,46.1Z"/><path class="cls-3" d="M149.9,24.13a19,19,0,0,1-2.4,26.76c-.22.18-.44.36-.67.53L132.92,63,108.58,33.92l14.57-12.18A19,19,0,0,1,149.9,24.13Z"/><polyline class="cls-3" points="107.9 34.49 132.24 63.62 132.25 63.63"/><path class="cls-4" d="M70.29,79.66h-11a4.76,4.76,0,0,1-4.77-4.76V50.14a10.92,10.92,0,0,0-.71-4.71,2.68,2.68,0,0,0-2.58-1.32c-2.3,0-3.46,2-3.46,6.09V74.9A4.76,4.76,0,0,1,43,79.66H32a4.76,4.76,0,0,1-4.76-4.76V50.14a10.52,10.52,0,0,0-.74-4.71,2.75,2.75,0,0,0-2.61-1.32q-3.41,0-3.4,6.09V74.9a4.76,4.76,0,0,1-4.77,4.76h-11A4.76,4.76,0,0,1,0,74.9V46A21.78,21.78,0,0,1,6.2,30.31a20.06,20.06,0,0,1,15-6.45,20.92,20.92,0,0,1,13.54,5.05,4.73,4.73,0,0,0,5.87,0q6.54-5.06,13.07-5.05,10.26,0,16.46,7.47,4.88,5.81,4.88,17V74.9A4.76,4.76,0,0,1,70.29,79.66Z"/><path class="cls-4" d="M204.12,4.22h11A4.77,4.77,0,0,1,219.87,9V49.81q0,12.57-6.58,20.47a27.08,27.08,0,0,1-9.63,7.24A29.29,29.29,0,0,1,171,72a27.21,27.21,0,0,1-8.39-20.19,27.56,27.56,0,0,1,8.34-20,26.82,26.82,0,0,1,19.75-8.44h.86a4.77,4.77,0,0,1,4.62,4.76V39.52a4.82,4.82,0,0,1-5,4.75h0a7.38,7.38,0,0,0-5.46,2.33,7.77,7.77,0,0,0-2.28,5.63,7.49,7.49,0,0,0,3.06,6.07A7.64,7.64,0,0,0,190.94,60q8.42.36,8.41-10.9V9A4.77,4.77,0,0,1,204.12,4.22Z"/><path class="cls-4" d="M251.2,29.18V74.35a4.77,4.77,0,0,1-4.77,4.76h-11a4.76,4.76,0,0,1-4.76-4.76V29.18a4.77,4.77,0,0,1,4.76-4.77h11A4.78,4.78,0,0,1,251.2,29.18ZM241,0a10,10,0,0,1,7.22,2.94,9.31,9.31,0,0,1,3,6.94,9.27,9.27,0,0,1-2.88,7,11.31,11.31,0,0,1-14.76,0,9.27,9.27,0,0,1-2.88-7,9.32,9.32,0,0,1,3.05-6.94A10,10,0,0,1,241,0Z"/><path class="cls-4" d="M299.7,53.82l11.68-.44a4.78,4.78,0,0,1,4.79,6,28,28,0,0,1-7.81,13.26A27,27,0,0,1,289,80.26a27.62,27.62,0,0,1-20.38-8.39A28.12,28.12,0,0,1,260.3,51.3q0-12.45,9.7-21a28.12,28.12,0,0,1,17.23-7,27.84,27.84,0,0,1,19.7,6.43,27.47,27.47,0,0,1,7.78,10.1,4.76,4.76,0,0,1-4.21,6.65l-12.36.45a4.58,4.58,0,0,1-3.36-1.18,8,8,0,0,0-5.68-2.24,7.68,7.68,0,0,0-5.76,2.3,8,8,0,0,0-2.25,5.81,8.16,8.16,0,0,0,2.39,6A8,8,0,0,0,289.43,60a7,7,0,0,0,6.33-3.76A4.82,4.82,0,0,1,299.7,53.82Z"/><path class="cls-4" d="M352.09,23.26A27.1,27.1,0,0,1,372,31.63q9.63,9.71,8.1,23.86a26,26,0,0,1-5.79,13.72q-9.07,11-22.75,11a27.87,27.87,0,0,1-20.35-8.37,27.36,27.36,0,0,1-8.45-20.16,27.09,27.09,0,0,1,8.45-20.22A28.8,28.8,0,0,1,352.09,23.26Zm-.55,20.25a7.49,7.49,0,0,0-5.6,2.38,8.5,8.5,0,0,0,0,11.66,7.7,7.7,0,0,0,11.19,0,8.5,8.5,0,0,0,0-11.66A7.55,7.55,0,0,0,351.54,43.51Z"/></g></g></svg>