<svg xmlns="http://www.w3.org/2000/svg" viewBox="0 0 380.34 84.66"><defs><style>.cls-1{fill:#fff;}.cls-2{fill:#282c67;}.cls-3{fill:none;stroke:#231f20;stroke-miterlimit:10;stroke-width:10px;}.cls-4{fill:#231f20;}</style></defs><title>Asset 2</title><g id="Layer_2" data-name="Layer 2"><g id="Layer_1-2" data-name="Layer 1"><path class="cls-1" d="M107.9,34.49l24.34,29.12L119,74.67c-.21.2-.42.39-.64.57A19,19,0,0,1,94,46.1Z"/><path class="cls-2" d="M149.9,24.13a19,19,0,0,1-2.4,26.76c-.22.18-.44.36-.67.53L132.92,63,108.58,33.92l14.57-12.18A19,19,0,0,1,149.9,24.13Z"/><path class="cls-3" d="M94,46.1l13.9-11.61,24.34,29.12L119,74.67c-.21.2-.42.39-.64.57A19,19,0,0,1,94,46.1Z"/><path class="cls-3" d="M149.9,24.13a19,19,0,0,1-2.4,26.76c-.22.18-.44.36-.67.53L132.92,63,108.58,33.92l14.57-12.18A19,19,0,0,1,149.9,24.13Z"/><polyline class="cls-3" points="107.9 34.49 132.24 63.62 132.25 63.63"/><path class="cls-4" d="M75.05,79.66H54.53V50.14a10.92,10.92,0,0,0-.71-4.71,2.68,2.68,0,0,0-2.58-1.32c-2.3,0-3.46,2-3.46,6.09V79.66H27.27V50.14a10.52,10.52,0,0,0-.74-4.71,2.75,2.75,0,0,0-2.61-1.32q-3.41,0-3.4,6.09V79.66H0V46A21.78,21.78,0,0,1,6.2,30.31a20.06,20.06,0,0,1,15-6.45q9.11,0,16.35,7.69,8.07-7.68,16.13-7.69,10.26,0,16.46,7.47,4.88,5.81,4.88,17Z"/><path class="cls-4" d="M199.35,4.22h20.52V49.81q0,12.57-6.58,20.47a27.08,27.08,0,0,1-9.63,7.24A29.29,29.29,0,0,1,171,72a27.21,27.21,0,0,1-8.39-20.19,27.56,27.56,0,0,1,8.34-20,26.82,26.82,0,0,1,19.75-8.44c1.21,0,3,.11,5.48.33v22.6a8.15,8.15,0,0,0-5-2,7.38,7.38,0,0,0-5.46,2.33,7.77,7.77,0,0,0-2.28,5.63,7.34,7.34,0,0,0,2.36,5.46A7.84,7.84,0,0,0,191.45,60q7.91,0,7.9-10.91Z"/><path class="cls-4" d="M251.2,24.41v54.7H230.68V24.41ZM241,0a10,10,0,0,1,7.22,2.94,9.31,9.31,0,0,1,3,6.94,9.27,9.27,0,0,1-2.88,7,11.31,11.31,0,0,1-14.76,0,9.27,9.27,0,0,1-2.88-7,9.32,9.32,0,0,1,3.05-6.94A10,10,0,0,1,241,0Z"/><path class="cls-4" d="M296.84,53.93l20.35-.77a28.94,28.94,0,0,1-8.83,19.48A27,27,0,0,1,289,80.26a27.62,27.62,0,0,1-20.38-8.39A28.12,28.12,0,0,1,260.3,51.3a26.74,26.74,0,0,1,8.4-19.81,28.43,28.43,0,0,1,48,14.76L295.91,47a8.23,8.23,0,0,0-6.81-3.51,7.68,7.68,0,0,0-5.76,2.3,8,8,0,0,0-2.25,5.81,8.16,8.16,0,0,0,2.39,6A8,8,0,0,0,289.43,60Q294.65,60,296.84,53.93Z"/><path class="cls-4" d="M352.09,23.26A27.1,27.1,0,0,1,372,31.63a27.45,27.45,0,0,1,8.31,20.05,27.38,27.38,0,0,1-8.42,20.19,28.94,28.94,0,0,1-40.68,0,27.36,27.36,0,0,1-8.45-20.16,27.09,27.09,0,0,1,8.45-20.22A28.8,28.8,0,0,1,352.09,23.26Zm-.55,20.25a7.49,7.49,0,0,0-5.6,2.38,8.5,8.5,0,0,0,0,11.66,7.7,7.7,0,0,0,11.19,0,8.5,8.5,0,0,0,0-11.66A7.55,7.55,0,0,0,351.54,43.51Z"/></g></g></svg>