<svg xmlns="http://www.w3.org/2000/svg" viewBox="0 0 381.31 81.27"><defs><style>.cls-1,.cls-4{fill:#fff;}.cls-1,.cls-2,.cls-3{stroke:#fff;}.cls-1,.cls-2,.cls-3,.cls-4{stroke-miterlimit:10;}.cls-2{fill:#282c67;}.cls-3{fill:none;}.cls-4{stroke:#231f20;}</style></defs><title>medico-light</title><g id="Layer_2" data-name="Layer 2"><g id="Layer_1-2" data-name="Layer 1"><path class="cls-1" d="M108.4,35l24.34,29.12L119.5,75.17c-.21.2-.42.39-.64.57A19,19,0,0,1,94.5,46.6Z"/><path class="cls-2" d="M150.4,24.63A19,19,0,0,1,148,51.39c-.22.18-.44.36-.67.53L133.42,63.5,109.08,34.42l14.57-12.18A19,19,0,0,1,150.4,24.63Z"/><path class="cls-3" d="M94.5,46.6,108.4,35l24.34,29.12L119.5,75.17c-.21.2-.42.39-.64.57A19,19,0,0,1,94.5,46.6Z"/><path class="cls-3" d="M150.4,24.63A19,19,0,0,1,148,51.39c-.22.18-.44.36-.67.53L133.42,63.5,109.08,34.42l14.57-12.18A19,19,0,0,1,150.4,24.63Z"/><polyline class="cls-3" points="108.41 34.99 132.75 64.12 132.75 64.13"/><path class="cls-4" d="M70.79,80.16h-11A4.76,4.76,0,0,1,55,75.41h0V50.64a10.68,10.68,0,0,0-.71-4.71,2.67,2.67,0,0,0-2.58-1.32c-2.3,0-3.46,2-3.46,6.09V75.4a4.76,4.76,0,0,1-4.76,4.76h-11a4.76,4.76,0,0,1-4.76-4.76h0V50.64A10.4,10.4,0,0,0,27,45.93a2.74,2.74,0,0,0-2.61-1.32Q21,44.61,21,50.7V75.4a4.76,4.76,0,0,1-4.76,4.76h-11A4.76,4.76,0,0,1,.5,75.4V46.5A21.81,21.81,0,0,1,6.7,30.81a20.09,20.09,0,0,1,15-6.45,20.9,20.9,0,0,1,13.54,5.05,4.73,4.73,0,0,0,5.87,0q6.54-5.06,13.07-5.05,10.26,0,16.46,7.47,4.89,5.81,4.88,17V75.4A4.75,4.75,0,0,1,70.79,80.16Z"/><path class="cls-4" d="M204.62,4.72h11a4.76,4.76,0,0,1,4.75,4.78V50.31q0,12.57-6.58,20.47A26.93,26.93,0,0,1,204.16,78,29.3,29.3,0,0,1,171.5,72.5a27.26,27.26,0,0,1-8.39-20.19,27.62,27.62,0,0,1,8.34-20,26.85,26.85,0,0,1,19.75-8.44h.86a4.76,4.76,0,0,1,4.62,4.76V40a4.81,4.81,0,0,1-4.88,4.75h-.12a7.39,7.39,0,0,0-5.46,2.33,7.8,7.8,0,0,0-2.28,5.63A7.52,7.52,0,0,0,187,58.8a7.63,7.63,0,0,0,4.44,1.7q8.43.36,8.41-10.9V9.5a4.78,4.78,0,0,1,4.76-4.78Z"/><path class="cls-4" d="M251.7,29.68V74.85a4.76,4.76,0,0,1-4.77,4.76h-11a4.76,4.76,0,0,1-4.76-4.76V29.68a4.77,4.77,0,0,1,4.76-4.77h11A4.78,4.78,0,0,1,251.7,29.68ZM241.5.5a10,10,0,0,1,7.22,2.94,9.3,9.3,0,0,1,3,6.94,9.24,9.24,0,0,1-2.88,7,11.32,11.32,0,0,1-14.76,0,9.31,9.31,0,0,1-2.88-7,9.35,9.35,0,0,1,3.05-6.94A10.05,10.05,0,0,1,241.5.5Z"/><path class="cls-4" d="M300.2,54.32l11.68-.44a4.78,4.78,0,0,1,4.95,4.61,4.34,4.34,0,0,1-.16,1.39,27.89,27.89,0,0,1-7.81,13.26,27,27,0,0,1-19.36,7.62,27.65,27.65,0,0,1-20.38-8.39A28.14,28.14,0,0,1,260.8,51.8q0-12.45,9.7-21a28.63,28.63,0,0,1,36.94-.57,27.62,27.62,0,0,1,7.78,10.1A4.76,4.76,0,0,1,311,47l-12.36.45a4.55,4.55,0,0,1-3.36-1.18A8,8,0,0,0,289.61,44a7.67,7.67,0,0,0-5.76,2.3,8,8,0,0,0-2.25,5.81,8.12,8.12,0,0,0,2.39,6,8,8,0,0,0,5.94,2.38,7,7,0,0,0,6.33-3.76A4.85,4.85,0,0,1,300.2,54.32Z"/><path class="cls-4" d="M352.59,23.76a27.09,27.09,0,0,1,19.91,8.37q9.63,9.7,8.1,23.86a26,26,0,0,1-5.79,13.72q-9.06,11-22.75,11a27.89,27.89,0,0,1-20.35-8.37,27.4,27.4,0,0,1-8.45-20.16A27.15,27.15,0,0,1,331.71,32,28.83,28.83,0,0,1,352.59,23.76ZM352,44a7.53,7.53,0,0,0-5.6,2.38,8.51,8.51,0,0,0,0,11.66,7.71,7.71,0,0,0,10.89.31c.1-.1.21-.2.3-.31a8.49,8.49,0,0,0,0-11.66A7.55,7.55,0,0,0,352,44Z"/></g></g></svg>